<svg version="1.2" baseProfile="tiny-ps" viewBox="0 0 32 32" xmlns="http://www.w3.org/2000/svg" xmlns:xlink="http://www.w3.org/1999/xlink">
    <title>BuyToFill</title>
    <path fill="#474BFF" d="m21.7 13.15c.3.3 1.2 0 1.8 0 .6-.3 0-3.3 0-4.9-1.8 0-4.8-.7-5.1 0 0 .6-.3 1.4 0 1.8s1.1 0 1.7 0c-12.3 13-12.3 11.4-12.3 12.3.8 1.8-.3.7 1.5 1.5.8 0-.8 0 12.4-12.4 0 .7-.3 1.3 0 1.7m-3.1 11.1c.4.7 3.5 0 5.1 0 0-1.6.7-4.6 0-4.9-.6 0-1.4-.3-1.8 0s0 .9 0 1.7c-4.9-4.4-3.7-4.4-4.2-4.4s-1.5 1.1-1.5 1.6 0-.8 4.3 4.3c-.6 0-1.4-.3-1.8 0s0 1-.1 1.7m-10.3-14.3c0 .3 0-.4 5.3 5.2.5-.1 1.1-.8 1.3-1.3-5.6-5.2-4.9-5.2-5.3-5.2-1.5.8-.5-.2-1.3 1.3"/>
</svg>